<svg width="236" height="304" viewBox="0 0 236 304" fill="none" xmlns="http://www.w3.org/2000/svg">
<path d="M157.787 159.946C141.029 141.12 128.512 69.6658 124.717 23.0012C123.117 3.36525 121.271 0.0351562 118 0.0351562C114.724 0.0351562 112.876 3.42899 111.274 23.1403C107.478 69.8279 94.9528 141.137 78.2127 159.947C48.9662 192.798 0 178.823 0 194.556C0 207.934 45.2527 199.32 78.2127 228.162C107.885 254.122 111.789 303.699 118 303.699C124.211 303.699 128.115 254.122 157.787 228.162C190.747 199.319 236 207.934 236 194.556C236 178.823 187.031 192.798 157.787 159.947V159.946Z" fill="white"/>
</svg>
